HIERARCHY
ROOT Hips
{
	OFFSET 0.000000 0.000000 0.000000
	CHANNELS 6 Xposition Yposition Zposition Zrotation Yrotation Xrotation 
	JOINT LHipJoint
	{
		OFFSET 0.000000 0.000000 0.000000
		CHANNELS 3 Zrotation Yrotation Xrotation
		JOINT LeftUpLeg
		{
			OFFSET 1.363060 -1.794630 0.839290
			CHANNELS 3 Zrotation Yrotation Xrotation
			JOINT LeftLeg
			{
				OFFSET 2.448110 -6.726130 0.000000
				CHANNELS 3 Zrotation Yrotation Xrotation
				JOINT LeftFoot
				{
					OFFSET 2.562200 -7.039590 0.000000
					CHANNELS 3 Zrotation Yrotation Xrotation
					JOINT LeftToeBase
					{
						OFFSET 0.157640 -0.433110 2.322550
						CHANNELS 3 Zrotation Yrotation Xrotation
						End Site
						{
							OFFSET 0.000000 0.000000 0.000000
						}
					}
				}
			}
		}
	}
	JOINT RHipJoint
	{
		OFFSET 0.000000 0.000000 0.000000
		CHANNELS 3 Zrotation Yrotation Xrotation
		JOINT RightUpLeg
		{
			OFFSET -1.305520 -1.794630 0.839290
			CHANNELS 3 Zrotation Yrotation Xrotation
			JOINT RightLeg
			{
				OFFSET -2.542530 -6.985550 0.000000
				CHANNELS 3 Zrotation Yrotation Xrotation
				JOINT RightFoot
				{
					OFFSET -2.568260 -7.056230 0.000000
					CHANNELS 3 Zrotation Yrotation Xrotation
					JOINT RightToeBase
					{
						OFFSET -0.164730 -0.452590 2.363150
						CHANNELS 3 Zrotation Yrotation Xrotation
						End Site
						{
							OFFSET 0.000000 0.000000 0.000000
						}
					}
				}
			}
		}
	}
	JOINT LowerBack
	{
		OFFSET 0.000000 0.000000 0.000000
		CHANNELS 3 Zrotation Yrotation Xrotation
		JOINT Spine
		{
			OFFSET 0.028270 2.035590 -0.193380
			CHANNELS 3 Zrotation Yrotation Xrotation
			JOINT Spine1
			{
				OFFSET 0.056720 2.048850 -0.042750
				CHANNELS 3 Zrotation Yrotation Xrotation
				JOINT Neck
				{
					OFFSET 0.000000 0.000000 0.000000
					CHANNELS 3 Zrotation Yrotation Xrotation
					JOINT Neck1
					{
						OFFSET -0.054170 1.746240 0.172020
						CHANNELS 3 Zrotation Yrotation Xrotation
						JOINT Head
						{
							OFFSET 0.104070 1.761360 -0.123970
							CHANNELS 3 Zrotation Yrotation Xrotation
							End Site
							{
								OFFSET 0.000000 0.000000 0.000000
							}
						}
					}
				}
				JOINT LeftShoulder
				{
					OFFSET 0.000000 0.000000 0.000000
					CHANNELS 3 Zrotation Yrotation Xrotation
					JOINT LeftArm
					{
						OFFSET 3.362410 1.200890 -0.311210
						CHANNELS 3 Zrotation Yrotation Xrotation
						JOINT LeftForeArm
						{
							OFFSET 4.983000 -0.000000 -0.000000
							CHANNELS 3 Zrotation Yrotation Xrotation
							JOINT LeftHand
							{
								OFFSET 3.483560 -0.000000 -0.000000
								CHANNELS 3 Zrotation Yrotation Xrotation
								JOINT LeftFingerBase
								{
									OFFSET 0.000000 0.000000 0.000000
									CHANNELS 3 Zrotation Yrotation Xrotation
									JOINT LeftHandIndex1
									{
										OFFSET 0.715260 -0.000000 -0.000000
										CHANNELS 3 Zrotation Yrotation Xrotation
										End Site
										{
											OFFSET 0.000000 0.000000 0.000000
										}
									}
								}
								JOINT LThumb
								{
									OFFSET 0.000000 0.000000 0.000000
									CHANNELS 3 Zrotation Yrotation Xrotation
									End Site
									{
										OFFSET 0.000000 0.000000 0.000000
									}
								}
							}
						}
					}
				}
				JOINT RightShoulder
				{
					OFFSET 0.000000 0.000000 0.000000
					CHANNELS 3 Zrotation Yrotation Xrotation
					JOINT RightArm
					{
						OFFSET -3.136600 1.374050 -0.404650
						CHANNELS 3 Zrotation Yrotation Xrotation
						JOINT RightForeArm
						{
							OFFSET -5.241900 -0.000000 -0.000000
							CHANNELS 3 Zrotation Yrotation Xrotation
							JOINT RightHand
							{
								OFFSET -3.444170 -0.000000 -0.000000
								CHANNELS 3 Zrotation Yrotation Xrotation
								JOINT RightFingerBase
								{
									OFFSET 0.000000 0.000000 0.000000
									CHANNELS 3 Zrotation Yrotation Xrotation
									JOINT RightHandIndex1
									{
										OFFSET -0.622530 -0.000000 -0.000000
										CHANNELS 3 Zrotation Yrotation Xrotation
										End Site
										{
											OFFSET 0.000000 0.000000 0.000000
										}
									}
								}
								JOINT RThumb
								{
									OFFSET 0.000000 0.000000 0.000000
									CHANNELS 3 Zrotation Yrotation Xrotation
									End Site
									{
										OFFSET 0.000000 0.000000 0.000000
									}
								}
							}
						}
					}
				}
			}
		}
	}
}
MOTION
Frames: 12
Frame Time: 0.008333
0.694535 16.925492 44.174812 -178.293394 12.659832 -152.492440 -0.295747 -5.748449 -12.168422 -6.213474 3.782099 -70.399822 5.742771 18.405384 48.576034 4.963240 -10.250566 26.628269 0.413700 -4.128600 -11.438700 10.306464 -5.622846 14.086472 -0.180118 11.046326 1.908231 3.472750 -1.675933 1.283347 -8.395735 -25.216144 62.353394 -3.718800 11.776500 -34.946000 0.133765 7.677699 16.730224 -0.806516 9.217794 -4.342285 -4.117693 5.543383 -6.727732 -3.530320 -4.141316 -11.767189 3.477102 -5.847671 -2.664697 1.139500 -3.149200 1.658800 4.543962 -1.239293 0.901034 -45.630273 52.508695 56.770647 81.313913 -63.884429 -65.445189 -1.073584 -1.838520 -10.153427 23.792490 -13.412676 -5.375300 -7.125000 0.000000 0.000000 -1.366900 17.270400 0.899700 -6.635589 3.248875 0.129999 71.077387 6.469901 38.411342 -135.156878 46.502412 -103.097336 1.758501 -0.145250 -9.811316 -24.237821 7.778410 -3.953300 7.125000 0.000000 0.000000 0.660200 -20.913300 0.381100 
0.729168 16.961449 43.572485 -178.290444 12.230868 -152.521952 -0.618939 -5.990739 -12.012490 -6.838431 4.094508 -69.707235 5.569733 18.279078 48.153224 4.955853 -10.067344 27.109561 0.414900 -4.134600 -11.455600 10.798249 -5.038390 13.573220 0.132547 9.620038 0.310408 2.812783 -3.772545 5.952344 -7.877942 -27.036793 62.086252 -1.341200 7.332500 -20.704300 0.170708 7.593398 16.652222 -0.816862 9.141441 -4.352862 -4.270867 5.465332 -6.741232 -3.508896 -4.278155 -11.662446 3.656971 -6.003508 -2.670713 1.225600 -3.207400 1.645000 4.624772 -1.290698 0.801655 -47.537953 53.665231 54.642009 83.423825 -64.577110 -66.838752 -1.025746 -1.773521 -10.322489 23.876846 -12.714323 -5.096200 -7.125000 0.000000 0.000000 -1.311100 17.951500 0.843400 -6.718834 3.270646 0.161328 71.643875 5.692331 39.308786 -134.968027 46.700194 -102.850112 1.757683 -0.148285 -9.824344 -24.170341 7.577969 -3.848400 7.125000 0.000000 0.000000 0.701300 -21.133400 0.401300 
0.763911 16.993986 42.970930 -178.267478 11.661806 -152.736091 -0.946665 -6.182502 -11.719398 -7.369401 4.268615 -68.784965 5.609331 18.309712 48.421566 5.016065 -10.328482 27.397164 0.379300 -3.955300 -10.950900 11.052031 -4.494580 12.838379 0.776870 8.008498 -0.810477 1.771171 -5.712203 10.192247 -6.727784 -29.960905 60.675500 -0.216300 2.993900 -8.261700 0.367285 7.472635 16.786311 -0.831246 9.045416 -4.318336 -4.482002 5.378711 -6.598362 -3.428254 -4.425253 -11.780552 3.802133 -6.203541 -2.707147 1.269300 -3.298100 1.659600 4.689798 -1.392679 0.619144 -49.960414 54.334747 52.218808 85.309698 -65.090033 -67.958305 -0.988519 -1.684602 -10.856179 23.977190 -12.422942 -5.023500 -7.125000 0.000000 0.000000 -1.259000 18.151300 0.804400 -6.796614 3.317791 0.216368 72.568165 4.964357 39.944276 -134.235416 47.268412 -102.226476 1.739437 -0.163041 -9.506952 -23.833054 7.369154 -3.692600 7.125000 0.000000 0.000000 0.950200 -21.383000 0.538400 
0.802404 17.018251 42.382500 -178.084474 11.355306 -152.771103 -1.207765 -6.330181 -11.424626 -7.830285 4.665669 -67.775229 5.700081 18.328741 48.785182 5.070223 -10.592647 27.814384 0.369500 -3.904500 -10.808100 11.108368 -3.944756 12.193450 1.489992 5.934260 -1.977751 0.787475 -6.990076 13.383465 -5.596657 -30.889356 58.990477 -0.023900 0.999000 -2.746100 0.422659 7.402845 16.848627 -0.826660 9.008894 -4.302118 -4.492714 5.312198 -6.618370 -3.473665 -4.505073 -11.734205 3.949244 -6.307093 -2.779226 1.331300 -3.343300 1.620500 4.766520 -1.559135 0.363272 -53.093346 54.973691 49.543498 87.285844 -65.478943 -68.983464 -0.960172 -1.573633 -11.300605 24.511056 -11.970527 -4.979300 -7.125000 0.000000 0.000000 -0.892800 18.468200 0.564100 -6.858172 3.411073 0.285441 73.569062 4.204205 40.859755 -132.984419 48.142417 -101.207980 1.719850 -0.157762 -9.323842 -23.508837 7.120082 -3.515800 7.125000 0.000000 0.000000 1.188200 -21.693000 0.665000 
0.839023 17.056414 41.791312 -177.899305 10.702369 -153.053051 -1.688405 -6.542380 -10.975544 -7.744936 4.644626 -65.771278 5.874232 18.446583 49.578949 5.439651 -12.122953 27.298334 0.092400 -1.960900 -5.397600 11.145123 -3.210150 11.457517 2.517208 3.547716 -3.372529 -0.244988 -8.119344 16.716688 -4.447966 -30.441386 57.013221 -0.269000 3.336400 -9.216800 0.688334 7.112167 17.377003 -0.755628 8.750111 -4.302920 -4.312639 5.096164 -7.010757 -3.709581 -4.482158 -11.575860 4.086024 -6.255730 -2.854855 1.414700 -3.316400 1.609500 4.833045 -1.888669 -0.048497 -57.815793 55.032456 46.237841 88.742805 -65.403117 -69.490034 -0.927754 -1.431682 -11.748962 24.606342 -11.610472 -4.893800 -7.125000 0.000000 0.000000 -0.851800 18.685300 0.534100 -6.871536 3.602914 0.375594 75.006231 2.588246 41.524916 -130.483381 49.723215 -99.270466 1.682324 -0.134757 -7.967270 -23.091311 6.408341 -3.093000 7.125000 0.000000 0.000000 1.486100 -22.572100 0.802100 
0.875310 17.075274 41.202552 -177.740581 10.064385 -153.242003 -2.051711 -6.698658 -10.565797 -7.913638 4.691671 -64.291056 6.058632 18.519038 50.268355 5.721239 -13.212862 26.378659 0.010300 -0.656500 -1.804200 11.061405 -2.563645 10.730958 3.563967 1.748193 -4.489076 -1.444744 -9.315814 20.192199 -3.326913 -31.106035 55.152838 -0.057500 1.547900 -4.257800 0.952463 6.872314 17.705306 -0.724107 8.541563 -4.294637 -4.288356 4.924437 -7.179692 -3.802138 -4.516332 -11.554107 4.233604 -6.292557 -2.929914 1.486800 -3.330000 1.601000 4.890157 -2.120007 -0.329266 -61.789630 54.958795 43.406602 90.287680 -65.260380 -70.176698 -0.895354 -1.308290 -12.201727 24.666871 -11.339714 -4.833300 -7.125000 0.000000 0.000000 -0.837500 18.830200 0.522400 -6.903236 3.728987 0.443976 76.260159 1.364855 42.073560 -128.321363 50.945295 -97.575838 1.661045 -0.109167 -7.396093 -22.777276 5.967267 -2.829400 7.125000 0.000000 0.000000 1.715500 -23.120200 0.904500 
0.912480 17.089061 40.616990 -177.646327 9.357224 -153.459764 -2.451124 -6.849532 -10.111370 -8.087502 4.661166 -62.651413 6.274237 18.578411 50.954969 6.041591 -14.260091 24.886600 0.017900 0.864300 2.375500 10.908379 -1.894596 9.953263 4.658153 0.182500 -5.674757 -2.743606 -10.484139 23.845351 -2.098164 -31.728818 52.997313 -0.001500 -0.247300 0.679500 1.201388 6.585582 18.111887 -0.691729 8.269548 -4.288991 -4.252682 4.720529 -7.357599 -3.890971 -4.528079 -11.604133 4.380981 -6.301549 -3.022532 1.559200 -3.331400 1.599300 4.925077 -2.349082 -0.529959 -65.986261 54.318718 40.616431 91.550060 -64.875727 -70.692790 -0.866594 -1.186099 -12.635624 24.577860 -11.179741 -4.793300 -7.125000 0.000000 0.000000 -0.934000 18.867700 0.581800 -6.920881 3.843347 0.491726 77.646516 0.052275 42.450210 -125.575251 52.320563 -95.445260 1.643441 -0.068908 -6.877071 -22.486710 5.513536 -2.564300 7.125000 0.000000 0.000000 1.927400 -23.692200 0.991000 
0.951194 17.098216 40.034626 -177.689441 8.596519 -153.685341 -2.892121 -6.999151 -9.626912 -8.358167 4.560499 -60.895554 6.477562 18.593534 51.488407 6.381232 -15.071670 22.908138 0.139700 2.408600 6.636200 10.698041 -1.224014 9.149624 5.697881 -1.136857 -6.987161 -4.096134 -11.594110 27.635401 -0.858590 -32.198636 50.682047 -0.108600 -2.124500 5.849800 1.353507 6.255827 18.565365 -0.664675 7.917178 -4.288568 -4.201290 4.482667 -7.529085 -3.967008 -4.515472 -11.746887 4.530971 -6.281257 -3.138567 1.631900 -3.319800 1.603200 4.931495 -2.557456 -0.605602 -70.170707 53.025951 37.999706 92.489230 -64.320707 -71.033376 -0.844103 -1.072741 -12.990195 24.367343 -11.107147 -4.764800 -7.125000 0.000000 0.000000 -1.116800 18.830600 0.696700 -6.924912 3.935123 0.508677 79.141061 -1.313734 42.633301 -122.171091 53.789452 -92.823381 1.633528 -0.010703 -6.493661 -22.256950 5.076858 -2.314100 7.125000 0.000000 0.000000 2.091900 -24.255400 1.048500 
0.991011 17.103289 39.454799 -177.915685 7.743447 -153.922857 -3.373036 -7.142332 -9.109276 -8.749631 4.329767 -59.091484 6.714288 18.587947 51.966749 6.691818 -15.464335 20.461851 0.338700 3.739800 10.345600 10.421972 -0.546201 8.306700 6.662794 -2.254370 -8.500995 -5.520508 -12.673780 31.713683 0.372294 -32.398637 48.178163 -0.388800 -4.003900 11.087600 1.404158 5.866244 19.065176 -0.646172 7.460272 -4.291676 -4.146744 4.199981 -7.679505 -4.015291 -4.478555 -11.993480 4.681373 -6.234933 -3.282513 1.700900 -3.297400 1.611400 4.908589 -2.743167 -0.558831 -74.100330 51.071015 35.692091 93.085661 -63.684899 -71.190931 -0.828900 -0.974364 -13.232779 24.045796 -11.098565 -4.735400 -7.125000 0.000000 0.000000 -1.374700 18.751600 0.860100 -6.916847 4.002931 0.495910 80.722358 -2.696533 42.605635 -118.045769 55.266661 -89.664874 1.632993 0.069924 -6.313438 -22.093760 4.657054 -2.076200 7.125000 0.000000 0.000000 2.202000 -24.813500 1.075400 
1.032923 17.104613 38.878943 -178.373722 6.833569 -154.168821 -3.888645 -7.270413 -8.565301 -9.293356 3.962333 -57.274553 6.967990 18.557406 52.382115 6.921947 -15.341012 17.767199 0.544300 4.726700 13.130700 10.083846 0.116036 7.436328 7.455584 -3.158313 -10.240897 -6.987958 -13.703717 36.053035 1.562475 -32.282608 45.490097 -0.802200 -5.716500 15.964100 1.278579 5.424563 19.609219 -0.638933 6.892408 -4.296215 -4.064982 3.872815 -7.824168 -4.034355 -4.410941 -12.308221 4.831321 -6.159873 -3.467748 1.762200 -3.264400 1.606400 4.860344 -2.915172 -0.430035 -77.620536 48.532292 33.789112 93.332032 -63.038265 -71.147487 -0.824363 -0.891335 -13.338667 23.708558 -11.139297 -4.718300 -7.125000 0.000000 0.000000 -1.636500 18.638600 1.028100 -6.896856 4.061696 0.462494 82.359245 -4.047190 42.386569 -113.083905 56.654763 -85.888081 1.644733 0.174489 -6.368185 -22.021645 4.301441 -1.870800 7.125000 0.000000 0.000000 2.235700 -25.316000 1.065800 
1.076270 17.098216 38.308823 -179.069885 5.874997 -154.420955 -4.428580 -7.375335 -8.003335 -9.956223 3.416868 -55.467258 7.226419 18.508661 52.773710 7.043040 -14.797810 15.037506 0.693800 5.324700 14.837100 9.688908 0.750525 6.549693 8.019648 -3.868973 -12.223378 -8.466417 -14.669773 40.632768 2.661126 -31.760481 42.633319 -1.257800 -7.109600 20.040400 0.965440 4.928034 20.204070 -0.640756 6.209243 -4.301937 -3.935628 3.500892 -7.989539 -4.030079 -4.305878 -12.651079 4.976266 -6.049619 -3.698238 1.811900 -3.219100 1.578300 4.793742 -3.087337 -0.266956 -80.675016 45.528823 32.332959 93.249788 -62.415781 -70.900073 -0.830908 -0.824361 -13.289933 23.427248 -11.145898 -4.691400 -7.125000 0.000000 0.000000 -1.846700 18.576900 1.162800 -6.863766 4.127792 0.413308 84.010350 -5.358099 42.026601 -107.230585 57.800783 -81.447151 1.670537 0.303414 -6.659321 -22.053089 4.034979 -1.707100 7.125000 0.000000 0.000000 2.179700 -25.736700 1.017700 
1.121050 17.087848 37.742893 -179.984606 4.876044 -154.688541 -4.990083 -7.447576 -7.428574 -10.677972 2.668302 -53.615360 7.462802 18.438931 53.139890 7.063856 -14.026838 12.464227 0.720000 5.422100 15.116600 9.247098 1.343411 5.662544 8.309900 -4.423995 -14.427507 -9.914920 -15.556681 45.385945 3.632713 -30.788032 39.591147 -1.587500 -7.948200 22.556800 0.467945 4.377677 20.856220 -0.646576 5.416400 -4.304110 -3.727126 3.090724 -8.183506 -4.012470 -4.155126 -12.972204 5.109131 -5.897288 -3.980931 1.845700 -3.160200 1.507600 4.717390 -3.270987 -0.101015 -83.279336 42.154491 31.332044 92.860944 -61.825575 -70.443361 -0.849613 -0.771410 -13.134427 23.282281 -11.084045 -4.659400 -7.125000 0.000000 0.000000 -1.946300 18.593200 1.224900 -6.815743 4.213012 0.344888 85.625027 -6.617528 41.605107 -100.501889 58.511611 -76.316828 1.706677 0.450782 -7.182839 -22.138493 3.893677 -1.597200 7.125000 0.000000 0.000000 2.072100 -26.032300 0.953100 
